<svg xmlns="http://www.w3.org/2000/svg" width="260" height="260" viewBox="0 0 260 260" fill="none" stroke="#ffffff" stroke-width="1.3" stroke-linecap="round" stroke-linejoin="round"><g transform="translate(178.3,57.3) rotate(290) scale(1.75)"><path d="M0 -10C1.4 -10 2 -7 2 -4L9 1L9 3L2 1.4L2 6L4.4 8L4.4 9.4L0 8.4L-4.4 9.4L-4.4 8L-2 6L-2 1.4L-9 3L-9 1L-2 -4C-2 -7 -1.4 -10 0 -10Z"></path></g><g transform="translate(218.9,99.3) rotate(180) scale(1.52)"><path d="M-9 4a4 4 0 0 1 .6 -7.9a5.5 5.5 0 0 1 10 -.6a3.6 3.6 0 0 1 2.4 7.5z"></path></g><g transform="translate(67.7,17.7) rotate(302) scale(1.91)"><path d="M0 -10C1.4 -10 2 -7 2 -4L9 1L9 3L2 1.4L2 6L4.4 8L4.4 9.4L0 8.4L-4.4 9.4L-4.4 8L-2 6L-2 1.4L-9 3L-9 1L-2 -4C-2 -7 -1.4 -10 0 -10Z"></path></g><g transform="translate(67.7,277.7) rotate(302) scale(1.91)"><path d="M0 -10C1.4 -10 2 -7 2 -4L9 1L9 3L2 1.4L2 6L4.4 8L4.4 9.4L0 8.4L-4.4 9.4L-4.4 8L-2 6L-2 1.4L-9 3L-9 1L-2 -4C-2 -7 -1.4 -10 0 -10Z"></path></g><g transform="translate(60.9,202.0) rotate(232) scale(1.79)"><path d="M0 5C-5 0-6 -5-2.6 -5C-.8 -5 0 -3.4 0 -3.4C0 -3.4 .8 -5 2.6 -5C6 -5 5 0 0 5Z"></path></g><g transform="translate(50.0,178.1) rotate(17) scale(1.63)"><circle r="7"></circle><path d="M-7 0h14"></path><path d="M0 -7c4 3 4 11 0 14"></path><path d="M0 -7c-4 3-4 11 0 14"></path></g><g transform="translate(193.4,225.0) rotate(283) scale(1.57)"><rect x="-7.5" y="-1" width="7" height="7" rx="1.3"></rect><rect x=".5" y="-1" width="7" height="7" rx="1.3"></rect><rect x="-3.5" y="-8" width="7" height="7" rx="1.3"></rect></g><g transform="translate(58.3,132.2) rotate(317) scale(1.67)"><path d="M-8 4h16l-2 4h-12z"></path><path d="M0 4v-12"></path><path d="M0 -8l7 8h-7z"></path></g><g transform="translate(93.5,201.2) rotate(229) scale(1.41)"><path d="M0 -8L2.3 -2.3L8.5 -2.3L3.4 1.6L5.5 8L0 4.1L-5.5 8L-3.4 1.6L-8.5 -2.3L-2.3 -2.3Z"></path></g><g transform="translate(196.0,126.3) rotate(232) scale(1.58)"><path d="M0 -8L2.3 -2.3L8.5 -2.3L3.4 1.6L5.5 8L0 4.1L-5.5 8L-3.4 1.6L-8.5 -2.3L-2.3 -2.3Z"></path></g><g transform="translate(168.1,257.8) rotate(321) scale(1.77)"><path d="M-12 4v-3a2 2 0 0 1 2-2h2l3-4h6l3 4h2a2 2 0 0 1 2 2v3z"></path><circle cx="-6" cy="4.5" r="2.2"></circle><circle cx="6" cy="4.5" r="2.2"></circle></g><g transform="translate(168.1,-2.2) rotate(321) scale(1.77)"><path d="M-12 4v-3a2 2 0 0 1 2-2h2l3-4h6l3 4h2a2 2 0 0 1 2 2v3z"></path><circle cx="-6" cy="4.5" r="2.2"></circle><circle cx="6" cy="4.5" r="2.2"></circle></g><g transform="translate(34.0,8.0) rotate(221) scale(1.44)"><path d="M0 -8L2.3 -2.3L8.5 -2.3L3.4 1.6L5.5 8L0 4.1L-5.5 8L-3.4 1.6L-8.5 -2.3L-2.3 -2.3Z"></path></g><g transform="translate(34.0,268.0) rotate(221) scale(1.44)"><path d="M0 -8L2.3 -2.3L8.5 -2.3L3.4 1.6L5.5 8L0 4.1L-5.5 8L-3.4 1.6L-8.5 -2.3L-2.3 -2.3Z"></path></g><g transform="translate(49.4,74.8) rotate(180) scale(1.50)"><circle r="6"></circle><line y1="-7.6" y2="-10"></line><line y1="-7.6" y2="-10" transform="rotate(45)"></line><line y1="-7.6" y2="-10" transform="rotate(90)"></line><line y1="-7.6" y2="-10" transform="rotate(135)"></line><line y1="-7.6" y2="-10" transform="rotate(180)"></line><line y1="-7.6" y2="-10" transform="rotate(225)"></line><line y1="-7.6" y2="-10" transform="rotate(270)"></line><line y1="-7.6" y2="-10" transform="rotate(315)"></line><path d="M-2.6 1a3 3 0 0 0 5.2 0"></path><circle cx="-2.2" cy="-1.4" r=".8" fill="#fff" stroke="none"></circle><circle cx="2.2" cy="-1.4" r=".8" fill="#fff" stroke="none"></circle></g><g transform="translate(129.2,106.2) rotate(4) scale(1.76)"><path d="M-12 4v-3a2 2 0 0 1 2-2h2l3-4h6l3 4h2a2 2 0 0 1 2 2v3z"></path><circle cx="-6" cy="4.5" r="2.2"></circle><circle cx="6" cy="4.5" r="2.2"></circle></g><g transform="translate(210.4,49.7) rotate(43) scale(1.44)"><path d="M0 -8L2.3 -2.3L8.5 -2.3L3.4 1.6L5.5 8L0 4.1L-5.5 8L-3.4 1.6L-8.5 -2.3L-2.3 -2.3Z"></path></g><g transform="translate(244.7,121.9) rotate(356) scale(2.00)"><path d="M0 -8L2.3 -2.3L8.5 -2.3L3.4 1.6L5.5 8L0 4.1L-5.5 8L-3.4 1.6L-8.5 -2.3L-2.3 -2.3Z"></path></g><g transform="translate(-15.3,121.9) rotate(356) scale(2.00)"><path d="M0 -8L2.3 -2.3L8.5 -2.3L3.4 1.6L5.5 8L0 4.1L-5.5 8L-3.4 1.6L-8.5 -2.3L-2.3 -2.3Z"></path></g><g transform="translate(98.6,49.5) rotate(65) scale(1.41)"><circle cx="-5" cy="-5" r="2.3"></circle><circle cx="5" cy="-5" r="2.3"></circle><circle r="6.4"></circle><circle cx="0" cy="1.6" r="2.5"></circle><circle cx="-2.4" cy="-1" r=".7" fill="#fff" stroke="none"></circle><circle cx="2.4" cy="-1" r=".7" fill="#fff" stroke="none"></circle></g><g transform="translate(13.1,38.9) rotate(77) scale(1.98)"><path d="M-8 4h16l-2 4h-12z"></path><path d="M0 4v-12"></path><path d="M0 -8l7 8h-7z"></path></g><g transform="translate(273.1,38.9) rotate(77) scale(1.98)"><path d="M-8 4h16l-2 4h-12z"></path><path d="M0 4v-12"></path><path d="M0 -8l7 8h-7z"></path></g><g transform="translate(136.1,207.3) rotate(23) scale(1.83)"><path d="M0 5C-5 0-6 -5-2.6 -5C-.8 -5 0 -3.4 0 -3.4C0 -3.4 .8 -5 2.6 -5C6 -5 5 0 0 5Z"></path></g><g transform="translate(111.7,27.6) rotate(156) scale(1.68)"><path d="M0 5C-5 0-6 -5-2.6 -5C-.8 -5 0 -3.4 0 -3.4C0 -3.4 .8 -5 2.6 -5C6 -5 5 0 0 5Z"></path></g><g transform="translate(111.7,287.6) rotate(156) scale(1.68)"><path d="M0 5C-5 0-6 -5-2.6 -5C-.8 -5 0 -3.4 0 -3.4C0 -3.4 .8 -5 2.6 -5C6 -5 5 0 0 5Z"></path></g><g transform="translate(167.8,173.8) rotate(213) scale(1.43)"><path d="M0 5C-5 0-6 -5-2.6 -5C-.8 -5 0 -3.4 0 -3.4C0 -3.4 .8 -5 2.6 -5C6 -5 5 0 0 5Z"></path></g><g transform="translate(196.8,176.3) rotate(338) scale(1.70)"><circle cx="-5" cy="-5" r="2.3"></circle><circle cx="5" cy="-5" r="2.3"></circle><circle r="6.4"></circle><circle cx="0" cy="1.6" r="2.5"></circle><circle cx="-2.4" cy="-1" r=".7" fill="#fff" stroke="none"></circle><circle cx="2.4" cy="-1" r=".7" fill="#fff" stroke="none"></circle></g><g transform="translate(235.4,179.2) rotate(244) scale(1.86)"><path d="M0 -8L2.3 -2.3L8.5 -2.3L3.4 1.6L5.5 8L0 4.1L-5.5 8L-3.4 1.6L-8.5 -2.3L-2.3 -2.3Z"></path></g><g transform="translate(-24.6,179.2) rotate(244) scale(1.86)"><path d="M0 -8L2.3 -2.3L8.5 -2.3L3.4 1.6L5.5 8L0 4.1L-5.5 8L-3.4 1.6L-8.5 -2.3L-2.3 -2.3Z"></path></g><g transform="translate(2.5,207.0) rotate(298) scale(1.75)"><circle r="6"></circle><line y1="-7.6" y2="-10"></line><line y1="-7.6" y2="-10" transform="rotate(45)"></line><line y1="-7.6" y2="-10" transform="rotate(90)"></line><line y1="-7.6" y2="-10" transform="rotate(135)"></line><line y1="-7.6" y2="-10" transform="rotate(180)"></line><line y1="-7.6" y2="-10" transform="rotate(225)"></line><line y1="-7.6" y2="-10" transform="rotate(270)"></line><line y1="-7.6" y2="-10" transform="rotate(315)"></line><path d="M-2.6 1a3 3 0 0 0 5.2 0"></path><circle cx="-2.2" cy="-1.4" r=".8" fill="#fff" stroke="none"></circle><circle cx="2.2" cy="-1.4" r=".8" fill="#fff" stroke="none"></circle></g><g transform="translate(262.5,207.0) rotate(298) scale(1.75)"><circle r="6"></circle><line y1="-7.6" y2="-10"></line><line y1="-7.6" y2="-10" transform="rotate(45)"></line><line y1="-7.6" y2="-10" transform="rotate(90)"></line><line y1="-7.6" y2="-10" transform="rotate(135)"></line><line y1="-7.6" y2="-10" transform="rotate(180)"></line><line y1="-7.6" y2="-10" transform="rotate(225)"></line><line y1="-7.6" y2="-10" transform="rotate(270)"></line><line y1="-7.6" y2="-10" transform="rotate(315)"></line><path d="M-2.6 1a3 3 0 0 0 5.2 0"></path><circle cx="-2.2" cy="-1.4" r=".8" fill="#fff" stroke="none"></circle><circle cx="2.2" cy="-1.4" r=".8" fill="#fff" stroke="none"></circle></g><g transform="translate(248.8,253.5) rotate(163) scale(1.56)"><circle r="6"></circle><line y1="-7.6" y2="-10"></line><line y1="-7.6" y2="-10" transform="rotate(45)"></line><line y1="-7.6" y2="-10" transform="rotate(90)"></line><line y1="-7.6" y2="-10" transform="rotate(135)"></line><line y1="-7.6" y2="-10" transform="rotate(180)"></line><line y1="-7.6" y2="-10" transform="rotate(225)"></line><line y1="-7.6" y2="-10" transform="rotate(270)"></line><line y1="-7.6" y2="-10" transform="rotate(315)"></line><path d="M-2.6 1a3 3 0 0 0 5.2 0"></path><circle cx="-2.2" cy="-1.4" r=".8" fill="#fff" stroke="none"></circle><circle cx="2.2" cy="-1.4" r=".8" fill="#fff" stroke="none"></circle></g><g transform="translate(248.8,-6.5) rotate(163) scale(1.56)"><circle r="6"></circle><line y1="-7.6" y2="-10"></line><line y1="-7.6" y2="-10" transform="rotate(45)"></line><line y1="-7.6" y2="-10" transform="rotate(90)"></line><line y1="-7.6" y2="-10" transform="rotate(135)"></line><line y1="-7.6" y2="-10" transform="rotate(180)"></line><line y1="-7.6" y2="-10" transform="rotate(225)"></line><line y1="-7.6" y2="-10" transform="rotate(270)"></line><line y1="-7.6" y2="-10" transform="rotate(315)"></line><path d="M-2.6 1a3 3 0 0 0 5.2 0"></path><circle cx="-2.2" cy="-1.4" r=".8" fill="#fff" stroke="none"></circle><circle cx="2.2" cy="-1.4" r=".8" fill="#fff" stroke="none"></circle></g><g transform="translate(-11.2,253.5) rotate(163) scale(1.56)"><circle r="6"></circle><line y1="-7.6" y2="-10"></line><line y1="-7.6" y2="-10" transform="rotate(45)"></line><line y1="-7.6" y2="-10" transform="rotate(90)"></line><line y1="-7.6" y2="-10" transform="rotate(135)"></line><line y1="-7.6" y2="-10" transform="rotate(180)"></line><line y1="-7.6" y2="-10" transform="rotate(225)"></line><line y1="-7.6" y2="-10" transform="rotate(270)"></line><line y1="-7.6" y2="-10" transform="rotate(315)"></line><path d="M-2.6 1a3 3 0 0 0 5.2 0"></path><circle cx="-2.2" cy="-1.4" r=".8" fill="#fff" stroke="none"></circle><circle cx="2.2" cy="-1.4" r=".8" fill="#fff" stroke="none"></circle></g><g transform="translate(-11.2,-6.5) rotate(163) scale(1.56)"><circle r="6"></circle><line y1="-7.6" y2="-10"></line><line y1="-7.6" y2="-10" transform="rotate(45)"></line><line y1="-7.6" y2="-10" transform="rotate(90)"></line><line y1="-7.6" y2="-10" transform="rotate(135)"></line><line y1="-7.6" y2="-10" transform="rotate(180)"></line><line y1="-7.6" y2="-10" transform="rotate(225)"></line><line y1="-7.6" y2="-10" transform="rotate(270)"></line><line y1="-7.6" y2="-10" transform="rotate(315)"></line><path d="M-2.6 1a3 3 0 0 0 5.2 0"></path><circle cx="-2.2" cy="-1.4" r=".8" fill="#fff" stroke="none"></circle><circle cx="2.2" cy="-1.4" r=".8" fill="#fff" stroke="none"></circle></g><g transform="translate(116.3,148.1) rotate(267) scale(1.82)"><circle r="6"></circle><line y1="-7.6" y2="-10"></line><line y1="-7.6" y2="-10" transform="rotate(45)"></line><line y1="-7.6" y2="-10" transform="rotate(90)"></line><line y1="-7.6" y2="-10" transform="rotate(135)"></line><line y1="-7.6" y2="-10" transform="rotate(180)"></line><line y1="-7.6" y2="-10" transform="rotate(225)"></line><line y1="-7.6" y2="-10" transform="rotate(270)"></line><line y1="-7.6" y2="-10" transform="rotate(315)"></line><path d="M-2.6 1a3 3 0 0 0 5.2 0"></path><circle cx="-2.2" cy="-1.4" r=".8" fill="#fff" stroke="none"></circle><circle cx="2.2" cy="-1.4" r=".8" fill="#fff" stroke="none"></circle></g><g transform="translate(88.9,229.5) rotate(239) scale(1.47)"><circle cx="-5" cy="-5" r="2.3"></circle><circle cx="5" cy="-5" r="2.3"></circle><circle r="6.4"></circle><circle cx="0" cy="1.6" r="2.5"></circle><circle cx="-2.4" cy="-1" r=".7" fill="#fff" stroke="none"></circle><circle cx="2.4" cy="-1" r=".7" fill="#fff" stroke="none"></circle></g><g transform="translate(22.2,127.6) rotate(294) scale(1.75)"><circle r="6"></circle><line y1="-7.6" y2="-10"></line><line y1="-7.6" y2="-10" transform="rotate(45)"></line><line y1="-7.6" y2="-10" transform="rotate(90)"></line><line y1="-7.6" y2="-10" transform="rotate(135)"></line><line y1="-7.6" y2="-10" transform="rotate(180)"></line><line y1="-7.6" y2="-10" transform="rotate(225)"></line><line y1="-7.6" y2="-10" transform="rotate(270)"></line><line y1="-7.6" y2="-10" transform="rotate(315)"></line><path d="M-2.6 1a3 3 0 0 0 5.2 0"></path><circle cx="-2.2" cy="-1.4" r=".8" fill="#fff" stroke="none"></circle><circle cx="2.2" cy="-1.4" r=".8" fill="#fff" stroke="none"></circle></g><g transform="translate(282.2,127.6) rotate(294) scale(1.75)"><circle r="6"></circle><line y1="-7.6" y2="-10"></line><line y1="-7.6" y2="-10" transform="rotate(45)"></line><line y1="-7.6" y2="-10" transform="rotate(90)"></line><line y1="-7.6" y2="-10" transform="rotate(135)"></line><line y1="-7.6" y2="-10" transform="rotate(180)"></line><line y1="-7.6" y2="-10" transform="rotate(225)"></line><line y1="-7.6" y2="-10" transform="rotate(270)"></line><line y1="-7.6" y2="-10" transform="rotate(315)"></line><path d="M-2.6 1a3 3 0 0 0 5.2 0"></path><circle cx="-2.2" cy="-1.4" r=".8" fill="#fff" stroke="none"></circle><circle cx="2.2" cy="-1.4" r=".8" fill="#fff" stroke="none"></circle></g><g transform="translate(73.0,93.9) rotate(268) scale(1.90)"><path d="M0 5C-5 0-6 -5-2.6 -5C-.8 -5 0 -3.4 0 -3.4C0 -3.4 .8 -5 2.6 -5C6 -5 5 0 0 5Z"></path></g><g transform="translate(244.5,57.9) rotate(131) scale(1.44)"><circle cx="-5" cy="-5" r="2.3"></circle><circle cx="5" cy="-5" r="2.3"></circle><circle r="6.4"></circle><circle cx="0" cy="1.6" r="2.5"></circle><circle cx="-2.4" cy="-1" r=".7" fill="#fff" stroke="none"></circle><circle cx="2.4" cy="-1" r=".7" fill="#fff" stroke="none"></circle></g><g transform="translate(-15.5,57.9) rotate(131) scale(1.44)"><circle cx="-5" cy="-5" r="2.3"></circle><circle cx="5" cy="-5" r="2.3"></circle><circle r="6.4"></circle><circle cx="0" cy="1.6" r="2.5"></circle><circle cx="-2.4" cy="-1" r=".7" fill="#fff" stroke="none"></circle><circle cx="2.4" cy="-1" r=".7" fill="#fff" stroke="none"></circle></g><g transform="translate(125.0,257.6) rotate(174) scale(1.99)"><path d="M0 5C-5 0-6 -5-2.6 -5C-.8 -5 0 -3.4 0 -3.4C0 -3.4 .8 -5 2.6 -5C6 -5 5 0 0 5Z"></path></g><g transform="translate(125.0,-2.4) rotate(174) scale(1.99)"><path d="M0 5C-5 0-6 -5-2.6 -5C-.8 -5 0 -3.4 0 -3.4C0 -3.4 .8 -5 2.6 -5C6 -5 5 0 0 5Z"></path></g></svg>