<svg xmlns="http://www.w3.org/2000/svg" width="260" height="260" viewBox="0 0 260 260" fill="none" stroke="#ffffff" stroke-width="1.3" stroke-linecap="round" stroke-linejoin="round"><g transform="translate(255.1,159.1) rotate(295) scale(1.97)"><path d="M3 -8A8 8 0 1 0 3 8A6 6 0 0 1 3 -8Z"></path><path d="M-2 -1q1.6 1.6 3.2 0"></path></g><g transform="translate(-4.9,159.1) rotate(295) scale(1.97)"><path d="M3 -8A8 8 0 1 0 3 8A6 6 0 0 1 3 -8Z"></path><path d="M-2 -1q1.6 1.6 3.2 0"></path></g><g transform="translate(107.4,18.9) rotate(270) scale(1.68)"><path d="M-6 2a3 3 0 0 1-1-5a3 3 0 0 1 4-3a3 3 0 0 1 6 0a3 3 0 0 1 4 3a3 3 0 0 1-1 5a3 3 0 0 1-12 0z"></path><ellipse cx="7" cy="3" rx="2.6" ry="2.2"></ellipse><line x1="-3" y1="6.6" x2="-3" y2="8.8"></line><line x1="2" y1="6.6" x2="2" y2="8.8"></line><circle cx="7.8" cy="2.6" r=".5" fill="#fff" stroke="none"></circle></g><g transform="translate(107.4,278.9) rotate(270) scale(1.68)"><path d="M-6 2a3 3 0 0 1-1-5a3 3 0 0 1 4-3a3 3 0 0 1 6 0a3 3 0 0 1 4 3a3 3 0 0 1-1 5a3 3 0 0 1-12 0z"></path><ellipse cx="7" cy="3" rx="2.6" ry="2.2"></ellipse><line x1="-3" y1="6.6" x2="-3" y2="8.8"></line><line x1="2" y1="6.6" x2="2" y2="8.8"></line><circle cx="7.8" cy="2.6" r=".5" fill="#fff" stroke="none"></circle></g><g transform="translate(165.2,138.9) rotate(130) scale(1.87)"><path d="M-6 2a3 3 0 0 1-1-5a3 3 0 0 1 4-3a3 3 0 0 1 6 0a3 3 0 0 1 4 3a3 3 0 0 1-1 5a3 3 0 0 1-12 0z"></path><ellipse cx="7" cy="3" rx="2.6" ry="2.2"></ellipse><line x1="-3" y1="6.6" x2="-3" y2="8.8"></line><line x1="2" y1="6.6" x2="2" y2="8.8"></line><circle cx="7.8" cy="2.6" r=".5" fill="#fff" stroke="none"></circle></g><g transform="translate(203.8,119.3) rotate(89) scale(1.54)"><path d="M0 -8L2.3 -2.3L8.5 -2.3L3.4 1.6L5.5 8L0 4.1L-5.5 8L-3.4 1.6L-8.5 -2.3L-2.3 -2.3Z"></path></g><g transform="translate(16.7,245.2) rotate(212) scale(1.96)"><path d="M3 -8A8 8 0 1 0 3 8A6 6 0 0 1 3 -8Z"></path><path d="M-2 -1q1.6 1.6 3.2 0"></path></g><g transform="translate(16.7,-14.8) rotate(212) scale(1.96)"><path d="M3 -8A8 8 0 1 0 3 8A6 6 0 0 1 3 -8Z"></path><path d="M-2 -1q1.6 1.6 3.2 0"></path></g><g transform="translate(276.7,245.2) rotate(212) scale(1.96)"><path d="M3 -8A8 8 0 1 0 3 8A6 6 0 0 1 3 -8Z"></path><path d="M-2 -1q1.6 1.6 3.2 0"></path></g><g transform="translate(276.7,-14.8) rotate(212) scale(1.96)"><path d="M3 -8A8 8 0 1 0 3 8A6 6 0 0 1 3 -8Z"></path><path d="M-2 -1q1.6 1.6 3.2 0"></path></g><g transform="translate(232.3,37.1) rotate(226) scale(1.60)"><path d="M3 -8A8 8 0 1 0 3 8A6 6 0 0 1 3 -8Z"></path><path d="M-2 -1q1.6 1.6 3.2 0"></path></g><g transform="translate(-27.7,37.1) rotate(226) scale(1.60)"><path d="M3 -8A8 8 0 1 0 3 8A6 6 0 0 1 3 -8Z"></path><path d="M-2 -1q1.6 1.6 3.2 0"></path></g><g transform="translate(126.0,162.2) rotate(240) scale(1.54)"><path d="M0 -8L2.3 -2.3L8.5 -2.3L3.4 1.6L5.5 8L0 4.1L-5.5 8L-3.4 1.6L-8.5 -2.3L-2.3 -2.3Z"></path></g><g transform="translate(91.4,187.1) rotate(36) scale(1.58)"><path d="M-6 2a3 3 0 0 1-1-5a3 3 0 0 1 4-3a3 3 0 0 1 6 0a3 3 0 0 1 4 3a3 3 0 0 1-1 5a3 3 0 0 1-12 0z"></path><ellipse cx="7" cy="3" rx="2.6" ry="2.2"></ellipse><line x1="-3" y1="6.6" x2="-3" y2="8.8"></line><line x1="2" y1="6.6" x2="2" y2="8.8"></line><circle cx="7.8" cy="2.6" r=".5" fill="#fff" stroke="none"></circle></g><g transform="translate(132.0,207.8) rotate(167) scale(1.96)"><path d="M0 -8L2.3 -2.3L8.5 -2.3L3.4 1.6L5.5 8L0 4.1L-5.5 8L-3.4 1.6L-8.5 -2.3L-2.3 -2.3Z"></path></g><g transform="translate(11.3,75.3) rotate(319) scale(1.73)"><path d="M3 -8A8 8 0 1 0 3 8A6 6 0 0 1 3 -8Z"></path><path d="M-2 -1q1.6 1.6 3.2 0"></path></g><g transform="translate(271.3,75.3) rotate(319) scale(1.73)"><path d="M3 -8A8 8 0 1 0 3 8A6 6 0 0 1 3 -8Z"></path><path d="M-2 -1q1.6 1.6 3.2 0"></path></g><g transform="translate(159.5,53.3) rotate(252) scale(1.75)"><path d="M-6 2a3 3 0 0 1-1-5a3 3 0 0 1 4-3a3 3 0 0 1 6 0a3 3 0 0 1 4 3a3 3 0 0 1-1 5a3 3 0 0 1-12 0z"></path><ellipse cx="7" cy="3" rx="2.6" ry="2.2"></ellipse><line x1="-3" y1="6.6" x2="-3" y2="8.8"></line><line x1="2" y1="6.6" x2="2" y2="8.8"></line><circle cx="7.8" cy="2.6" r=".5" fill="#fff" stroke="none"></circle></g><g transform="translate(54.0,174.7) rotate(25) scale(1.60)"><path d="M0 -8L2.3 -2.3L8.5 -2.3L3.4 1.6L5.5 8L0 4.1L-5.5 8L-3.4 1.6L-8.5 -2.3L-2.3 -2.3Z"></path></g><g transform="translate(213.3,254.8) rotate(60) scale(1.95)"><path d="M-6 2a3 3 0 0 1-1-5a3 3 0 0 1 4-3a3 3 0 0 1 6 0a3 3 0 0 1 4 3a3 3 0 0 1-1 5a3 3 0 0 1-12 0z"></path><ellipse cx="7" cy="3" rx="2.6" ry="2.2"></ellipse><line x1="-3" y1="6.6" x2="-3" y2="8.8"></line><line x1="2" y1="6.6" x2="2" y2="8.8"></line><circle cx="7.8" cy="2.6" r=".5" fill="#fff" stroke="none"></circle></g><g transform="translate(213.3,-5.2) rotate(60) scale(1.95)"><path d="M-6 2a3 3 0 0 1-1-5a3 3 0 0 1 4-3a3 3 0 0 1 6 0a3 3 0 0 1 4 3a3 3 0 0 1-1 5a3 3 0 0 1-12 0z"></path><ellipse cx="7" cy="3" rx="2.6" ry="2.2"></ellipse><line x1="-3" y1="6.6" x2="-3" y2="8.8"></line><line x1="2" y1="6.6" x2="2" y2="8.8"></line><circle cx="7.8" cy="2.6" r=".5" fill="#fff" stroke="none"></circle></g><g transform="translate(17.6,119.6) rotate(139) scale(1.59)"><path d="M3 -8A8 8 0 1 0 3 8A6 6 0 0 1 3 -8Z"></path><path d="M-2 -1q1.6 1.6 3.2 0"></path></g><g transform="translate(277.6,119.6) rotate(139) scale(1.59)"><path d="M3 -8A8 8 0 1 0 3 8A6 6 0 0 1 3 -8Z"></path><path d="M-2 -1q1.6 1.6 3.2 0"></path></g><g transform="translate(151.7,88.6) rotate(19) scale(1.54)"><path d="M-6 2a3 3 0 0 1-1-5a3 3 0 0 1 4-3a3 3 0 0 1 6 0a3 3 0 0 1 4 3a3 3 0 0 1-1 5a3 3 0 0 1-12 0z"></path><ellipse cx="7" cy="3" rx="2.6" ry="2.2"></ellipse><line x1="-3" y1="6.6" x2="-3" y2="8.8"></line><line x1="2" y1="6.6" x2="2" y2="8.8"></line><circle cx="7.8" cy="2.6" r=".5" fill="#fff" stroke="none"></circle></g><g transform="translate(65.5,249.5) rotate(83) scale(1.65)"><path d="M3 -8A8 8 0 1 0 3 8A6 6 0 0 1 3 -8Z"></path><path d="M-2 -1q1.6 1.6 3.2 0"></path></g><g transform="translate(65.5,-10.5) rotate(83) scale(1.65)"><path d="M3 -8A8 8 0 1 0 3 8A6 6 0 0 1 3 -8Z"></path><path d="M-2 -1q1.6 1.6 3.2 0"></path></g><g transform="translate(64.9,213.7) rotate(318) scale(1.48)"><path d="M3 -8A8 8 0 1 0 3 8A6 6 0 0 1 3 -8Z"></path><path d="M-2 -1q1.6 1.6 3.2 0"></path></g><g transform="translate(73.2,129.0) rotate(132) scale(1.53)"><path d="M-6 2a3 3 0 0 1-1-5a3 3 0 0 1 4-3a3 3 0 0 1 6 0a3 3 0 0 1 4 3a3 3 0 0 1-1 5a3 3 0 0 1-12 0z"></path><ellipse cx="7" cy="3" rx="2.6" ry="2.2"></ellipse><line x1="-3" y1="6.6" x2="-3" y2="8.8"></line><line x1="2" y1="6.6" x2="2" y2="8.8"></line><circle cx="7.8" cy="2.6" r=".5" fill="#fff" stroke="none"></circle></g><g transform="translate(64.9,29.1) rotate(136) scale(1.66)"><path d="M0 -8L2.3 -2.3L8.5 -2.3L3.4 1.6L5.5 8L0 4.1L-5.5 8L-3.4 1.6L-8.5 -2.3L-2.3 -2.3Z"></path></g><g transform="translate(64.9,289.1) rotate(136) scale(1.66)"><path d="M0 -8L2.3 -2.3L8.5 -2.3L3.4 1.6L5.5 8L0 4.1L-5.5 8L-3.4 1.6L-8.5 -2.3L-2.3 -2.3Z"></path></g><g transform="translate(154.3,179.8) rotate(296) scale(1.46)"><path d="M-6 2a3 3 0 0 1-1-5a3 3 0 0 1 4-3a3 3 0 0 1 6 0a3 3 0 0 1 4 3a3 3 0 0 1-1 5a3 3 0 0 1-12 0z"></path><ellipse cx="7" cy="3" rx="2.6" ry="2.2"></ellipse><line x1="-3" y1="6.6" x2="-3" y2="8.8"></line><line x1="2" y1="6.6" x2="2" y2="8.8"></line><circle cx="7.8" cy="2.6" r=".5" fill="#fff" stroke="none"></circle></g><g transform="translate(146.8,10.8) rotate(219) scale(1.46)"><path d="M3 -8A8 8 0 1 0 3 8A6 6 0 0 1 3 -8Z"></path><path d="M-2 -1q1.6 1.6 3.2 0"></path></g><g transform="translate(146.8,270.8) rotate(219) scale(1.46)"><path d="M3 -8A8 8 0 1 0 3 8A6 6 0 0 1 3 -8Z"></path><path d="M-2 -1q1.6 1.6 3.2 0"></path></g><g transform="translate(112.9,114.9) rotate(239) scale(1.53)"><path d="M3 -8A8 8 0 1 0 3 8A6 6 0 0 1 3 -8Z"></path><path d="M-2 -1q1.6 1.6 3.2 0"></path></g><g transform="translate(212.8,186.4) rotate(170) scale(1.49)"><path d="M-6 2a3 3 0 0 1-1-5a3 3 0 0 1 4-3a3 3 0 0 1 6 0a3 3 0 0 1 4 3a3 3 0 0 1-1 5a3 3 0 0 1-12 0z"></path><ellipse cx="7" cy="3" rx="2.6" ry="2.2"></ellipse><line x1="-3" y1="6.6" x2="-3" y2="8.8"></line><line x1="2" y1="6.6" x2="2" y2="8.8"></line><circle cx="7.8" cy="2.6" r=".5" fill="#fff" stroke="none"></circle></g><g transform="translate(226.9,87.7) rotate(312) scale(2.06)"><path d="M3 -8A8 8 0 1 0 3 8A6 6 0 0 1 3 -8Z"></path><path d="M-2 -1q1.6 1.6 3.2 0"></path></g><g transform="translate(86.9,72.7) rotate(235) scale(1.71)"><path d="M-6 2a3 3 0 0 1-1-5a3 3 0 0 1 4-3a3 3 0 0 1 6 0a3 3 0 0 1 4 3a3 3 0 0 1-1 5a3 3 0 0 1-12 0z"></path><ellipse cx="7" cy="3" rx="2.6" ry="2.2"></ellipse><line x1="-3" y1="6.6" x2="-3" y2="8.8"></line><line x1="2" y1="6.6" x2="2" y2="8.8"></line><circle cx="7.8" cy="2.6" r=".5" fill="#fff" stroke="none"></circle></g><g transform="translate(178.1,227.2) rotate(9) scale(1.60)"><path d="M3 -8A8 8 0 1 0 3 8A6 6 0 0 1 3 -8Z"></path><path d="M-2 -1q1.6 1.6 3.2 0"></path></g><circle cx="196" cy="157" r="1.2" fill="#fff" stroke="none"></circle><circle cx="148" cy="18" r="1.2" fill="#fff" stroke="none"></circle><circle cx="149" cy="21" r="1.6" fill="#fff" stroke="none"></circle><circle cx="90" cy="27" r="1.9" fill="#fff" stroke="none"></circle><circle cx="182" cy="57" r="1.7" fill="#fff" stroke="none"></circle><circle cx="247" cy="28" r="1.8" fill="#fff" stroke="none"></circle><circle cx="223" cy="23" r="1.6" fill="#fff" stroke="none"></circle><circle cx="172" cy="9" r="1.9" fill="#fff" stroke="none"></circle><circle cx="39" cy="4" r="1.8" fill="#fff" stroke="none"></circle><circle cx="93" cy="122" r="1.3" fill="#fff" stroke="none"></circle><circle cx="143" cy="169" r="1.6" fill="#fff" stroke="none"></circle><circle cx="43" cy="65" r="1.4" fill="#fff" stroke="none"></circle></svg>